<svg xmlns="http://www.w3.org/2000/svg" width="36" height="36" viewBox="0 0 36 36">
  <path d="M15 4a3 3 0 0 0-3 3v10.8l-2.1-1.6a3 3 0 0 0-4.1.4 3 3 0 0 0 .2 4.3l7.2 7.2A8.8 8.8 0 0 0 19.4 31H21c5 0 9-4 9-9v-7a3 3 0 0 0-6 0v-1a3 3 0 0 0-6 0V7a3 3 0 0 0-3-3Z" fill="#100F18" stroke="#100F18" stroke-linecap="round" stroke-linejoin="round" stroke-width="3" transform="translate(3 3)"/>
  <path d="M15 4a3 3 0 0 0-3 3v10.8l-2.1-1.6a3 3 0 0 0-4.1.4 3 3 0 0 0 .2 4.3l7.2 7.2A8.8 8.8 0 0 0 19.4 31H21c5 0 9-4 9-9v-7a3 3 0 0 0-6 0v-1a3 3 0 0 0-6 0V7a3 3 0 0 0-3-3Z" fill="#DEDAFF" stroke="#100F18" stroke-linecap="round" stroke-linejoin="round" stroke-width="3"/>
</svg>
